<svg width="214" height="225" viewBox="0 0 214 225" fill="none" xmlns="http://www.w3.org/2000/svg">
<g filter="url(#filter0_d_3245_26711)">
<path d="M164.657 185.231C164.076 185.72 163.483 186.205 162.884 186.686C162.424 187.052 161.963 187.413 161.497 187.765C159.955 188.949 158.366 190.086 156.725 191.179C154.625 192.582 152.443 193.909 150.193 195.154C150.083 195.212 149.98 195.269 149.87 195.33C149.064 195.768 148.253 196.201 147.43 196.614C146.405 197.142 145.363 197.651 144.31 198.141C142.29 199.087 140.218 199.976 138.1 200.799C135.861 201.669 133.576 202.463 131.244 203.181C130.778 203.324 130.306 203.466 129.834 203.604C129.115 203.813 128.39 204.018 127.659 204.213C125.845 204.707 124.009 205.159 122.144 205.559C120.331 205.953 118.495 206.3 116.636 206.6C115.18 206.833 113.712 207.037 112.233 207.213C111.623 207.289 111.007 207.356 110.385 207.418C108.676 207.594 106.949 207.732 105.205 207.827C102.834 207.96 100.48 208.022 98.1427 207.993C97.3426 207.988 96.5483 207.974 95.754 207.946C95.7137 207.946 95.6677 207.941 95.6274 207.941H95.518C94.8849 207.917 94.2805 207.893 93.6761 207.874C90.9767 207.76 88.2829 207.532 85.641 207.213C76.3223 206.096 67.4238 203.804 59.1815 200.523C53.2011 198.145 47.5777 195.245 42.3802 191.892C41.7183 191.484 41.0621 191.051 40.4002 190.571C35.9912 187.58 31.9276 184.251 28.2669 180.618C27.9734 180.333 27.6856 180.038 27.4093 179.748C24.9976 177.29 22.7701 174.703 20.7498 171.997C20.6692 171.907 20.6116 171.817 20.5598 171.726C12.9909 161.588 8.25964 149.834 7.21208 137.124C4.86945 108.441 22.1254 82.3832 49.5174 67.9325C51.106 67.0861 52.7349 66.2873 54.3926 65.5265C55.6819 64.9368 56.9942 64.3662 58.3296 63.8242C59.0663 63.5246 59.8146 63.2298 60.5686 62.9445C60.678 62.8779 60.7931 62.8303 60.9024 62.8113C63.4868 61.8318 66.1575 60.9473 68.88 60.196C70.3765 59.7633 71.8903 59.3591 73.4214 58.9883C75.1539 58.5746 76.9036 58.1989 78.6822 57.8661C83.212 57.0149 87.8915 56.4443 92.6804 56.178H92.6919C92.7264 56.178 92.761 56.1732 92.7955 56.1732C100.848 55.731 108.722 56.14 116.297 57.3477C116.302 57.343 116.308 57.3477 116.308 57.3477C116.958 57.4476 117.603 57.557 118.248 57.6711C120.89 58.1276 123.503 58.6934 126.064 59.3544C127.382 59.673 128.677 60.0344 129.972 60.4243C132.315 61.109 134.635 61.8841 136.902 62.7305C138.382 63.2821 139.844 63.8717 141.283 64.4899C141.582 64.6278 141.916 64.7657 142.215 64.9036C169.319 76.8388 188.555 99.7059 190.788 126.872C192.625 149.387 182.391 170.285 164.657 185.231V185.231Z" fill="white"/>
</g>
<g filter="url(#filter1_d_3245_26711)">
<path d="M158.948 180.328C158.417 180.772 157.876 181.213 157.329 181.649C156.909 181.981 156.488 182.309 156.063 182.629C154.654 183.704 153.204 184.736 151.706 185.729C149.788 187.002 147.796 188.207 145.741 189.338C145.641 189.389 145.547 189.441 145.447 189.497C144.711 189.895 143.97 190.287 143.219 190.663C142.283 191.142 141.332 191.604 140.37 192.049C138.526 192.908 136.634 193.715 134.7 194.462C132.655 195.252 130.569 195.973 128.441 196.625C128.015 196.754 127.584 196.884 127.153 197.009C126.496 197.199 125.834 197.385 125.167 197.562C123.511 198.011 121.835 198.421 120.132 198.783C118.476 199.142 116.8 199.457 115.103 199.729C113.773 199.94 112.433 200.126 111.082 200.286C110.525 200.355 109.963 200.415 109.395 200.471C107.834 200.631 106.258 200.756 104.665 200.843C102.5 200.964 100.351 201.02 98.2172 200.994C97.4867 200.989 96.7615 200.977 96.0363 200.951C95.9995 200.951 95.9574 200.946 95.9206 200.946H95.8208C95.2427 200.925 94.6909 200.903 94.1391 200.886C91.6743 200.782 89.2148 200.575 86.8027 200.286C78.2943 199.271 70.1696 197.19 62.6439 194.212C57.1837 192.053 52.0492 189.42 47.3037 186.376C46.6993 186.005 46.1002 185.612 45.4958 185.176C41.4702 182.46 37.76 179.438 34.4176 176.14C34.1496 175.881 33.8868 175.614 33.6346 175.35C31.4326 173.118 29.3988 170.77 27.5542 168.313C27.4806 168.231 27.428 168.149 27.3807 168.067C20.47 158.863 16.1501 148.191 15.1936 136.652C13.0547 110.611 28.8102 86.9532 53.8203 73.8335C55.2707 73.065 56.758 72.3398 58.2715 71.649C59.4487 71.1137 60.6469 70.5957 61.8661 70.1035C62.5388 69.8315 63.222 69.5639 63.9105 69.3048C64.0103 69.2444 64.1154 69.2012 64.2153 69.184C66.5749 68.2946 69.0134 67.4917 71.4992 66.8096C72.8655 66.4167 74.2477 66.0498 75.6456 65.713C77.2275 65.3374 78.8251 64.9964 80.449 64.6942C84.5849 63.9214 88.8575 63.4034 93.2299 63.1616H93.2404C93.272 63.1616 93.3035 63.1573 93.335 63.1573C100.687 62.7558 107.876 63.1271 114.792 64.2236C114.798 64.2193 114.803 64.2236 114.803 64.2236C115.397 64.3143 115.985 64.4136 116.574 64.5172C118.986 64.9316 121.372 65.4454 123.711 66.0454C124.914 66.3347 126.097 66.6628 127.279 67.0168C129.418 67.6384 131.536 68.3421 133.607 69.1106C134.957 69.6114 136.292 70.1467 137.606 70.7079C137.879 70.8331 138.184 70.9583 138.457 71.0835C163.205 81.9194 180.768 102.68 182.807 127.344C184.483 147.785 175.139 166.759 158.948 180.328V180.328Z" fill="#FFD255"/>
</g>
<g filter="url(#filter2_d_3245_26711)">
<path d="M165.697 173.703C165.235 174.135 164.773 174.561 164.305 174.978C162.755 176.378 161.155 177.729 159.497 179.037C157.374 180.715 155.161 182.315 152.871 183.831C152.76 183.901 152.654 183.97 152.543 184.045C151.723 184.579 150.896 185.107 150.056 185.616C149.01 186.263 147.946 186.891 146.868 187.499C144.802 188.672 142.677 189.786 140.5 190.83C138.199 191.935 135.844 192.96 133.437 193.905C132.955 194.093 132.468 194.281 131.98 194.465C131.236 194.743 130.485 195.016 129.729 195.279C127.852 195.944 125.949 196.564 124.012 197.129C122.129 197.685 120.219 198.19 118.282 198.645C115.313 194.207 113.36 190.412 112.724 187.554C111.808 183.415 114.118 177.855 118.444 172.59C120.115 170.551 122.093 168.56 124.303 166.71C124.466 166.574 124.634 166.438 124.803 166.302C126.772 164.697 128.912 163.206 131.184 161.905C133.603 160.516 136.167 159.331 138.821 158.443C139.154 158.323 139.495 158.217 139.835 158.111C140.307 157.966 140.779 157.83 141.259 157.71C143.576 157.095 145.949 156.716 148.337 156.617C149.805 156.558 151.278 156.602 152.752 156.767C152.752 156.767 156.239 160.383 161.829 166.163C163.527 167.919 165.419 169.877 167.472 171.991C166.89 172.566 166.297 173.137 165.697 173.703V173.703Z" fill="black"/>
<path d="M107.811 83.0234L73.689 83.2957L79.0879 148.231L127.506 162.043L123.449 141.524L107.811 83.0234Z" fill="#FDCBB2"/>
<path d="M75.2446 102.031L113.631 104.796L120.176 129.289L75.2446 102.031Z" fill="#EAB7A0"/>
<path d="M125.194 121.464L75.2439 102.028L45.1318 18.2388C171.29 -32.2977 136.47 109.5 136.47 109.5C136.47 109.5 155.266 117.307 125.189 121.469L125.194 121.464Z" fill="#FDCBB2"/>
<path d="M73.6889 37.3248C73.3835 14.7478 112.703 19.8528 69.2003 11.978C27.4261 4.41745 46.9304 44.9587 53.1475 52.6607C67.8463 70.8605 59.3128 68.0646 69.1888 74.0335L82.1648 78.2798C75.2446 52.1005 73.9136 53.6974 73.6889 37.3301V37.3248Z" fill="#26282D"/>
<path d="M93.0949 34.4259C124.14 39.7979 132.835 29.8393 132.835 29.8393C140.291 16.1108 139.363 -5.27765 103.599 1.18864C79.2316 5.59723 45.7662 11.8384 50.3873 24.106C69.1885 74.0247 63.5303 29.3105 93.0949 34.4259Z" fill="#26282D"/>
<path d="M72.084 82.7121C76.33 79.8612 75.1577 71.8752 69.4655 64.8749C63.7734 57.8745 55.7169 54.5106 51.4708 57.3615C47.2248 60.2124 48.3971 68.1984 54.0893 75.1987C59.7815 82.1991 67.838 85.5629 72.084 82.7121Z" fill="#FDCBB2"/>
<path d="M53.9766 62.6489C58.9895 61.2509 63.6336 64.9579 65.6503 68.8481C65.9211 69.4293 66.2034 70.0052 66.457 70.5864C66.0882 70.0524 65.754 69.5078 65.4025 68.9738C63.0228 65.382 58.9203 61.963 53.9766 62.6489V62.6489Z" fill="#CA807A"/>
<path d="M117.693 55.5856L89.5107 57.7009C89.5107 57.7009 92.0402 51.0147 103.553 50.2398C115.065 49.4648 117.698 55.5803 117.698 55.5803L117.693 55.5856Z" fill="#001848"/>
<path d="M140.814 57.3567L126.029 56.4195C126.029 56.4195 128.634 49.7595 134.805 50.5868C140.843 51.3931 140.814 57.3567 140.814 57.3567V57.3567Z" fill="#001848"/>
<path d="M98.9724 70.0258C99.5832 66.5492 102.781 63.1511 106.786 62.8265C108.065 62.7217 109.344 62.9521 110.519 63.4129C110.687 63.4809 110.836 63.2558 110.663 63.1877C108.595 62.3762 106.33 62.3238 104.268 63.1825C102.36 63.9731 100.805 65.4182 99.8022 67.078C99.2605 67.9733 98.8687 68.9524 98.6901 69.9629C98.6613 70.1253 98.9379 70.1986 98.9667 70.031L98.9724 70.0258Z" fill="#001848"/>
<path d="M110.892 68.6107C111.248 66.2384 110.157 64.144 108.455 63.9326C106.752 63.7212 105.083 65.473 104.726 67.8452C104.369 70.2175 105.46 72.312 107.163 72.5234C108.865 72.7347 110.535 70.983 110.892 68.6107Z" fill="#001848"/>
<path d="M119.708 58.0664C129.233 77.3501 138.919 88.2878 138.919 88.2878L131.555 89.0889L121.057 85.6594L119.708 58.0664V58.0664Z" fill="#EAB7A0"/>
<path d="M129.067 66.8539C129.245 65.5135 130.052 64.2307 131.037 63.2411C132.023 62.2515 133.313 61.4086 134.794 61.4452C135.716 61.4661 136.517 61.8798 137.156 62.4557C137.289 62.5762 137.491 62.3877 137.358 62.2725C136.188 61.2201 134.633 60.9059 133.112 61.5028C131.59 62.0997 130.38 63.3301 129.597 64.6338C129.182 65.325 128.877 66.0685 128.773 66.8539C128.75 67.0214 129.038 67.0214 129.061 66.8539H129.067Z" fill="#001848"/>
<path d="M136.497 66.8856C136.942 65.0262 136.51 63.3627 135.534 63.17C134.557 62.9774 133.405 64.3285 132.961 66.1879C132.517 68.0473 132.948 69.7109 133.925 69.9035C134.901 70.0962 136.053 68.745 136.497 66.8856Z" fill="#001848"/>
<path d="M109.471 93.2201C111.389 97.1784 116.95 98.4821 121.225 97.2517C121.853 97.0841 122.441 96.8066 122.971 96.4558C118.747 99.1523 111.441 97.7596 109.471 93.2148V93.2201Z" fill="#CA807A"/>
<path fill-rule="evenodd" clip-rule="evenodd" d="M108.826 93.3443V93.2156L109.981 93.0158L110.06 92.9844C110.062 92.9899 110.065 92.9954 110.068 93.0009L110.069 93.0006C110.074 93.0125 110.08 93.0243 110.085 93.0362C111.852 96.5927 116.974 97.861 121.03 96.6938L121.037 96.6919L121.043 96.6901C121.258 96.6328 121.469 96.5603 121.675 96.4743C121.999 96.3294 122.308 96.1636 122.601 95.9769L123.349 96.9305C123.004 97.1591 122.633 97.3614 122.241 97.5276C120.116 98.479 117.549 98.6388 115.222 98.1207C112.499 97.5142 109.997 95.9516 108.9 93.4966C108.894 93.4835 108.887 93.4704 108.881 93.4573L108.826 93.3443ZM109.47 93.2156V93.2208C109.478 93.2361 109.485 93.2513 109.493 93.2664C111.241 97.1984 117.001 98.7437 121.235 97.286C121.236 97.2859 121.236 97.2858 121.236 97.2857C121.482 97.201 121.723 97.1063 121.957 97.0013C122.313 96.8514 122.652 96.6672 122.971 96.4566C122.649 96.6617 122.31 96.8431 121.957 97.0013C121.72 97.101 121.476 97.1855 121.225 97.2525C116.966 98.4782 111.432 97.1891 109.493 93.2664C109.486 93.2513 109.479 93.2361 109.472 93.2208C109.472 93.2206 109.472 93.2203 109.472 93.2201C109.472 93.2186 109.471 93.2171 109.47 93.2156Z" fill="#CA807A"/>
<path d="M85.9202 200.711C76.5916 199.481 67.6836 196.957 59.4325 193.344C57.2545 174.223 56.7359 160.751 58.8908 159.191C60.5561 157.981 61.9562 156.468 63.1835 154.824C63.6157 154.243 64.0248 153.646 64.4223 153.038C68.4845 146.776 70.6741 139.535 75.5256 139.535C76.0327 139.535 76.7184 139.577 77.5481 139.656C77.8131 139.682 78.0897 139.713 78.3836 139.745C79.5475 139.87 80.9361 140.054 82.4976 140.279C82.5495 140.284 82.6071 140.294 82.6647 140.305C91.9415 141.64 107.216 144.405 118.17 145.933C118.931 146.038 119.674 146.143 120.388 146.232C121.587 146.389 122.716 146.53 123.765 146.64C124.007 146.666 124.243 146.693 124.474 146.714C125.516 146.823 126.461 146.902 127.291 146.954C127.844 146.986 128.346 147.001 128.795 147.007C130.034 147.017 131.526 148.143 133.214 150.232C133.716 150.845 134.229 151.541 134.759 152.321C136.251 154.52 137.87 157.363 139.564 160.761C142.272 166.165 145.176 172.971 148.126 180.82C148.927 182.951 149.734 185.155 150.541 187.433C150.431 187.496 150.327 187.558 150.218 187.627C149.411 188.108 148.599 188.585 147.775 189.04C146.749 189.621 145.706 190.182 144.652 190.721C142.629 191.763 140.555 192.742 138.435 193.648C136.193 194.606 133.906 195.48 131.572 196.271C131.106 196.428 130.633 196.585 130.161 196.737C129.44 196.967 128.714 197.192 127.983 197.407C126.168 197.952 124.329 198.449 122.463 198.889C120.648 199.323 118.81 199.706 116.948 200.036C115.491 200.292 114.021 200.517 112.54 200.711C111.93 200.795 111.313 200.868 110.691 200.936C108.98 201.13 107.251 201.282 105.505 201.386C103.131 201.533 100.775 201.601 98.4352 201.57C97.6343 201.564 96.8391 201.549 96.044 201.517C96.0037 201.517 95.9576 201.512 95.9172 201.512H95.8077C95.1739 201.486 94.5689 201.46 93.9639 201.439C91.2616 201.313 88.565 201.062 85.9202 200.711V200.711Z" fill="#D4D5D6"/>
<path d="M161.83 166.162C162.524 168.334 163.362 171.31 164.305 174.978C162.756 176.378 161.155 177.729 159.498 179.037C157.375 180.714 155.162 182.314 152.872 183.83C152.76 183.9 152.655 183.97 152.544 184.045C151.68 181.775 150.819 179.567 149.963 177.432C146.904 169.792 143.935 163.101 141.259 157.71C138.59 152.329 136.22 148.254 134.363 145.84C134.363 145.84 142.202 150.111 149.491 154.653C153.806 157.344 157.932 160.126 160.121 162.174C160.532 162.559 161.108 163.93 161.83 166.162V166.162Z" fill="black"/>
<path d="M138.435 193.652C136.194 194.61 133.906 195.484 131.573 196.275C131.106 196.432 130.633 196.589 130.161 196.741C127.983 186.154 125.995 176.384 124.376 168.378C123.811 165.593 123.293 163.022 122.826 160.708C121.161 152.44 120.158 147.398 120.158 147.398C120.17 147.393 120.187 147.393 120.199 147.393C120.515 147.325 120.792 147.387 121.616 147.23C122.1 147.136 122.774 146.963 123.765 146.644C123.967 146.576 124.186 146.508 124.416 146.424C125.108 146.188 125.926 145.89 126.9 145.508C126.9 145.508 127.05 146.047 127.292 146.958C127.626 148.225 128.139 150.21 128.692 152.435C129.671 156.388 130.76 161.116 131.158 164.006C131.227 164.519 131.273 164.97 131.296 165.352C131.383 166.912 134.327 178.263 138.435 193.652V193.652Z" fill="url(#paint0_linear_3245_26711)"/>
<path d="M127.983 197.409C126.168 197.953 124.33 198.451 122.463 198.89C121.029 188.639 119.663 179.806 118.505 173.894C117.848 170.517 117.254 168.093 116.759 166.91C116.759 166.91 111.372 161.114 106.284 156.354C106.094 156.176 105.903 155.998 105.713 155.825C103.224 153.522 100.85 151.532 99.2944 150.679C99.2944 150.679 118.436 145.589 120.159 147.396C121.075 148.343 121.662 155.422 122.855 160.716C123.097 161.763 123.356 162.742 123.65 163.59C124.002 164.747 124.411 166.234 124.872 167.999C126.543 174.376 128.905 184.439 131.573 196.272C131.106 196.43 130.634 196.587 130.161 196.738C129.441 196.969 128.715 197.194 127.983 197.409Z" fill="url(#paint1_linear_3245_26711)"/>
<path d="M157.081 183.054C154.978 184.599 152.794 186.059 150.541 187.431C150.432 187.494 150.328 187.557 150.219 187.625C149.412 188.107 148.599 188.583 147.775 189.039C144.514 178.185 141.305 168.195 138.585 161.027C137.15 157.241 135.854 154.241 134.759 152.319C134.367 151.639 134.004 151.089 133.67 150.691C133.463 150.445 133.255 150.199 133.059 149.963C125.465 140.947 125.194 140.136 125.194 140.136L125.482 138.125C125.765 138.35 126.047 138.586 126.335 138.816C135.514 146.22 149.688 156.681 149.688 156.681L148.905 157.922L147.706 159.817L147.159 160.686L154.707 164.666L157.081 183.054Z" fill="#26282D"/>
<path d="M85.9206 200.713C76.592 199.483 67.684 196.959 59.4329 193.346C53.4462 190.728 47.8167 187.534 42.6137 183.843C41.9511 183.393 41.2942 182.916 40.6316 182.388C36.2179 179.094 32.15 175.429 28.4854 171.429C28.906 170.183 29.3381 169.01 29.776 167.91C31.228 164.235 32.7204 161.35 33.9246 159.166C37.3588 152.931 49.4359 146.71 59.404 138.788C63.9445 135.186 68.047 131.233 70.6975 126.762C70.6975 126.762 73.0714 131.427 77.5485 139.658C77.8596 140.234 78.1823 140.83 78.5222 141.443C79.8129 143.815 81.2649 146.443 82.861 149.307C85.402 153.868 88.3176 159.025 91.5846 164.69C96.1884 172.67 103.921 185.885 110.691 200.938C108.98 201.132 107.251 201.284 105.506 201.388C103.132 201.535 100.775 201.603 98.4356 201.572C97.6347 201.567 96.8395 201.551 96.0444 201.519C96.004 201.519 95.9579 201.514 95.9176 201.514H95.8081C95.1743 201.488 94.5693 201.462 93.9643 201.441C91.2619 201.315 88.5654 201.064 85.9206 200.713V200.713Z" fill="black"/>
<path d="M94.2937 156.949C98.7362 164.4 106.123 182.087 112.542 200.711C111.931 200.794 111.315 200.868 110.692 200.936C108.981 201.13 107.252 201.281 105.506 201.386C103.133 201.533 100.776 201.601 98.4365 201.569C97.6356 201.564 96.8405 201.548 96.0453 201.517C83.3575 183.516 71.2228 166.772 71.2228 166.772L71.943 165.29L78.5923 151.635L64.4237 153.038L61.0068 153.373L59.405 138.786L59.1284 136.241L68.5838 123C68.5838 123 70.6466 125.377 73.6889 129.058C74.9623 130.597 76.397 132.356 77.9239 134.262C79.4451 136.158 81.0469 138.194 82.666 140.305C83.8357 141.828 85.0169 143.388 86.1693 144.954L86.3018 145.132C87.8979 147.3 89.4479 149.478 90.8711 151.593C92.1214 153.447 93.2796 155.248 94.2937 156.949V156.949Z" fill="#26282D"/>
<path d="M123.909 134.805L133.699 151.025L137.467 161.005C137.467 161.005 123.425 146.292 121.005 147.208C118.597 148.14 123.915 134.805 123.915 134.805H123.909Z" fill="white"/>
<path d="M73.689 129.065L86.1694 144.961L99.2951 162.045C99.2951 162.045 117.739 146.484 120.159 147.401C121.623 147.971 88.6067 126.248 74.6627 120.75L73.689 129.07V129.065Z" fill="white"/>
<path d="M98.4814 201.5C97.6805 201.496 96.8853 201.482 96.0901 201.452C96.0498 201.452 96.0037 201.447 95.9633 201.447L95.8539 201.448C95.22 201.423 94.615 201.398 94.0099 201.378C91.3073 201.257 88.6102 201.011 85.9648 200.666C76.6338 199.453 67.721 196.947 59.4629 193.35C53.4711 190.744 47.8355 187.561 42.6253 183.879C41.9618 183.43 41.3041 182.955 40.6404 182.428C36.2204 179.143 32.1454 175.486 28.473 171.493C28.1785 171.179 27.8898 170.855 27.6126 170.536C28.2621 169.676 28.9806 168.816 29.7569 167.972C37.4042 159.658 50.7526 152.616 63.1394 154.823C63.6005 154.9 64.0501 154.994 64.5055 155.097C64.5055 155.097 67.3479 159.008 71.9178 165.272C78.371 174.119 88.2733 187.66 98.4814 201.5V201.5Z" fill="black"/>
</g>
<defs>
<filter id="filter0_d_3245_26711" x="0" y="43" width="214" height="182" filterUnits="userSpaceOnUse" color-interpolation-filters="sRGB">
<feFlood flood-opacity="0" result="BackgroundImageFix"/>
<feColorMatrix in="SourceAlpha" type="matrix" values="0 0 0 0 0 0 0 0 0 0 0 0 0 0 0 0 0 0 127 0" result="hardAlpha"/>
<feOffset dx="8" dy="2"/>
<feGaussianBlur stdDeviation="7.5"/>
<feComposite in2="hardAlpha" operator="out"/>
<feColorMatrix type="matrix" values="0 0 0 0 0 0 0 0 0 0 0 0 0 0 0 0 0 0 0.15 0"/>
<feBlend mode="normal" in2="BackgroundImageFix" result="effect1_dropShadow_3245_26711"/>
<feBlend mode="normal" in="SourceGraphic" in2="effect1_dropShadow_3245_26711" result="shape"/>
</filter>
<filter id="filter1_d_3245_26711" x="8" y="50" width="198" height="168" filterUnits="userSpaceOnUse" color-interpolation-filters="sRGB">
<feFlood flood-opacity="0" result="BackgroundImageFix"/>
<feColorMatrix in="SourceAlpha" type="matrix" values="0 0 0 0 0 0 0 0 0 0 0 0 0 0 0 0 0 0 127 0" result="hardAlpha"/>
<feOffset dx="8" dy="2"/>
<feGaussianBlur stdDeviation="7.5"/>
<feComposite in2="hardAlpha" operator="out"/>
<feColorMatrix type="matrix" values="0 0 0 0 0 0 0 0 0 0 0 0 0 0 0 0 0 0 0.15 0"/>
<feBlend mode="normal" in2="BackgroundImageFix" result="effect1_dropShadow_3245_26711"/>
<feBlend mode="normal" in="SourceGraphic" in2="effect1_dropShadow_3245_26711" result="shape"/>
</filter>
<filter id="filter2_d_3245_26711" x="23.6125" y="0" width="147.859" height="209.578" filterUnits="userSpaceOnUse" color-interpolation-filters="sRGB">
<feFlood flood-opacity="0" result="BackgroundImageFix"/>
<feColorMatrix in="SourceAlpha" type="matrix" values="0 0 0 0 0 0 0 0 0 0 0 0 0 0 0 0 0 0 127 0" result="hardAlpha"/>
<feOffset dy="4"/>
<feGaussianBlur stdDeviation="2"/>
<feComposite in2="hardAlpha" operator="out"/>
<feColorMatrix type="matrix" values="0 0 0 0 0 0 0 0 0 0 0 0 0 0 0 0 0 0 0.25 0"/>
<feBlend mode="normal" in2="BackgroundImageFix" result="effect1_dropShadow_3245_26711"/>
<feBlend mode="normal" in="SourceGraphic" in2="effect1_dropShadow_3245_26711" result="shape"/>
</filter>
<linearGradient id="paint0_linear_3245_26711" x1="120.158" y1="171.127" x2="138.435" y2="171.127" gradientUnits="userSpaceOnUse">
<stop stop-color="#009F69"/>
<stop offset="0.48" stop-color="#04865A"/>
<stop offset="1" stop-color="#009F69"/>
</linearGradient>
<linearGradient id="paint1_linear_3245_26711" x1="99.2944" y1="172.952" x2="131.573" y2="172.952" gradientUnits="userSpaceOnUse">
<stop stop-color="#009F69"/>
<stop offset="1" stop-color="#009F69"/>
</linearGradient>
</defs>
</svg>
