<svg width="32" height="32" viewBox="0 0 32 32" fill="none" xmlns="http://www.w3.org/2000/svg">
<path opacity="0.2" d="M19 27V19H13V27H5.00001V14.4375C4.99928 14.2986 5.02785 14.1611 5.08385 14.0341C5.13985 13.907 5.22203 13.7931 5.32501 13.7L15.325 4.61247C15.5073 4.44469 15.746 4.35156 15.9938 4.35156C16.2415 4.35156 16.4802 4.44469 16.6625 4.61247L26.675 13.7C26.7756 13.795 26.8562 13.9092 26.9121 14.0359C26.9679 14.1625 26.9978 14.2991 27 14.4375V27H19Z" fill="#00A465"/>
<path d="M27 27V14.4375C26.9978 14.2991 26.9679 14.1625 26.9121 14.0359C26.8562 13.9092 26.7756 13.795 26.675 13.7L16.6625 4.61247C16.4802 4.44469 16.2415 4.35156 15.9938 4.35156C15.746 4.35156 15.5073 4.44469 15.325 4.61247L5.32501 13.7C5.22203 13.7931 5.13985 13.907 5.08385 14.0341C5.02785 14.1611 4.99928 14.2986 5.00001 14.4375V27" stroke="#00A465" stroke-width="2" stroke-linecap="round" stroke-linejoin="round"/>
<path d="M2 27H30" stroke="#00A465" stroke-width="2" stroke-linecap="round" stroke-linejoin="round"/>
<path d="M19 27V20C19 19.7348 18.8946 19.4804 18.7071 19.2929C18.5196 19.1054 18.2652 19 18 19H14C13.7348 19 13.4804 19.1054 13.2929 19.2929C13.1054 19.4804 13 19.7348 13 20V27" stroke="#00A465" stroke-width="2" stroke-linecap="round" stroke-linejoin="round"/>
</svg>
