<svg width="32" height="32" viewBox="0 0 32 32" fill="none" xmlns="http://www.w3.org/2000/svg">
<path opacity="0.2" d="M16 24.9994C16 24.9994 11 22.2744 11 14.9994C10.9832 13.4414 11.2413 11.8927 11.7625 10.4244C10.618 9.50718 9.28021 8.86179 7.84997 8.53691C7.60842 8.48128 7.35478 8.51853 7.13942 8.64126C6.92406 8.764 6.76273 8.96323 6.68747 9.19941C6.32497 10.2869 5.89997 12.4494 6.73747 15.2244C4.68747 14.7494 3.08747 14.9619 2.17497 15.1994C2.04673 15.2313 1.92619 15.2886 1.8205 15.3679C1.7148 15.4473 1.62611 15.547 1.55967 15.6612C1.49323 15.7755 1.45039 15.9019 1.43369 16.033C1.417 16.1641 1.42678 16.2972 1.46247 16.4244C1.84997 17.8369 3.08747 20.5869 6.88747 22.7744C10.6875 24.9619 14 24.9994 16 24.9994Z" fill="#00A465"/>
<path opacity="0.2" d="M16 24.9994C16 24.9994 21 22.2744 21 14.9994C21.0168 13.4414 20.7587 11.8927 20.2375 10.4244C21.382 9.50718 22.7198 8.86179 24.15 8.53691C24.3916 8.48128 24.6452 8.51853 24.8606 8.64126C25.0759 8.764 25.2372 8.96323 25.3125 9.19941C25.675 10.2869 26.1 12.4494 25.2625 15.2244C27.3125 14.7494 28.9125 14.9619 29.825 15.1994C29.9532 15.2313 30.0738 15.2886 30.1795 15.3679C30.2852 15.4473 30.3739 15.547 30.4403 15.6612C30.5067 15.7755 30.5496 15.9019 30.5663 16.033C30.583 16.1641 30.5732 16.2972 30.5375 16.4244C30.15 17.8369 28.9125 20.5869 25.1125 22.7744C21.3125 24.9619 18 24.9994 16 24.9994Z" fill="#00A465"/>
<path d="M16 24.9984C18 24.9984 21.3125 24.9734 25.1125 22.7734C28.9125 20.5734 30.15 17.8359 30.5375 16.4234C30.5732 16.2961 30.583 16.163 30.5663 16.0319C30.5496 15.9008 30.5067 15.7744 30.4403 15.6602C30.3739 15.5459 30.2852 15.4462 30.1795 15.3669C30.0738 15.2876 29.9532 15.2302 29.825 15.1984C28.9125 14.9609 27.3125 14.7484 25.2625 15.2359" stroke="#00A465" stroke-width="2" stroke-linecap="round" stroke-linejoin="round"/>
<path d="M6.73747 15.2255C4.68747 14.7505 3.08747 14.963 2.17497 15.2005C2.04673 15.2324 1.92619 15.2897 1.8205 15.3691C1.7148 15.4484 1.62611 15.5481 1.55967 15.6624C1.49323 15.7766 1.45039 15.903 1.43369 16.0341C1.417 16.1652 1.42678 16.2983 1.46247 16.4255C1.84997 17.838 3.08747 20.588 6.88747 22.7755C10.6875 24.963 14 25.0005 16 25.0005" stroke="#00A465" stroke-width="2" stroke-linecap="round" stroke-linejoin="round"/>
<path d="M16 25.0001C16 25.0001 21 22.2751 21 15.0001C21 9.30005 17.925 6.40005 16.6 5.40005C16.4261 5.27213 16.2159 5.20313 16 5.20312C15.7841 5.20313 15.5739 5.27213 15.4 5.40005C14.075 6.40005 11 9.30005 11 15.0001C11 22.2751 16 25.0001 16 25.0001Z" stroke="#00A465" stroke-width="2" stroke-linecap="round" stroke-linejoin="round"/>
<path d="M16 24.999C17.5 24.674 21.5375 22.399 23.9625 18.199C26.3875 13.999 25.7875 10.6615 25.3125 9.199C25.2399 8.96379 25.0809 8.76477 24.8676 8.64188C24.6543 8.519 24.4024 8.48135 24.1625 8.5365C22.7273 8.85793 21.3847 9.50358 20.2375 10.424" stroke="#00A465" stroke-width="2" stroke-linecap="round" stroke-linejoin="round"/>
<path d="M11.7625 10.424C10.6153 9.50358 9.27272 8.85793 7.8375 8.5365C7.59758 8.48135 7.34569 8.519 7.13238 8.64188C6.91907 8.76477 6.76014 8.96379 6.6875 9.199C6.2125 10.6615 5.6125 14.0115 8.0375 18.199C10.4625 22.3865 14.5 24.674 16 24.999" stroke="#00A465" stroke-width="2" stroke-linecap="round" stroke-linejoin="round"/>
</svg>
