<svg width="29" height="29" viewBox="0 0 29 29" fill="none" xmlns="http://www.w3.org/2000/svg">
<circle cx="14.5" cy="14.5" r="14.5" fill="white"/>
<path d="M15.1562 15.8125C16.606 15.8125 17.7812 14.6372 17.7812 13.1875C17.7812 11.7378 16.606 10.5625 15.1562 10.5625C13.7065 10.5625 12.5312 11.7378 12.5312 13.1875C12.5312 14.6372 13.7065 15.8125 15.1562 15.8125Z" stroke="#00A465" stroke-width="2" stroke-linecap="round" stroke-linejoin="round"/>
<path d="M6.625 12.8594H8.59375" stroke="#00A465" stroke-width="2" stroke-linecap="round" stroke-linejoin="round"/>
<path d="M6.625 9.57812H8.59375" stroke="#00A465" stroke-width="2" stroke-linecap="round" stroke-linejoin="round"/>
<path d="M6.625 16.1406H8.59375" stroke="#00A465" stroke-width="2" stroke-linecap="round" stroke-linejoin="round"/>
<path d="M6.625 19.4219H8.59375" stroke="#00A465" stroke-width="2" stroke-linecap="round" stroke-linejoin="round"/>
<path d="M11.2188 17.7812C11.6772 17.17 12.2717 16.6738 12.9551 16.3321C13.6385 15.9904 14.3922 15.8125 15.1562 15.8125C15.9203 15.8125 16.6739 15.9904 17.3574 16.3321C18.0408 16.6738 18.6353 17.17 19.0938 17.7812" stroke="#00A465" stroke-width="2" stroke-linecap="round" stroke-linejoin="round"/>
<path d="M21.7188 21.7188V7.28125C21.7188 6.91881 21.4249 6.625 21.0625 6.625L9.25 6.625C8.88756 6.625 8.59375 6.91881 8.59375 7.28125L8.59375 21.7188C8.59375 22.0812 8.88756 22.375 9.25 22.375H21.0625C21.4249 22.375 21.7188 22.0812 21.7188 21.7188Z" stroke="#00A465" stroke-width="2" stroke-linecap="round" stroke-linejoin="round"/>
</svg>
