<svg width="18" height="18" viewBox="0 0 18 18" fill="none" xmlns="http://www.w3.org/2000/svg">
<path d="M5.58789 9.23731C6.26319 10.6319 7.39084 11.7566 8.78711 12.4283C8.8901 12.4771 9.00402 12.4982 9.11765 12.4896C9.23128 12.4809 9.34071 12.4429 9.43516 12.3791L11.4859 11.0092C11.5765 10.9477 11.6812 10.9102 11.7903 10.9002C11.8993 10.8902 12.0091 10.9079 12.1094 10.9518L15.9484 12.6006C16.0796 12.6552 16.1893 12.7514 16.2604 12.8745C16.3316 12.9975 16.3603 13.1405 16.3422 13.2815C16.2205 14.2312 15.757 15.104 15.0383 15.7366C14.3196 16.3693 13.395 16.7183 12.4375 16.7186C9.47868 16.7186 6.64104 15.5432 4.54884 13.451C2.45664 11.3588 1.28125 8.52113 1.28125 5.56231C1.28147 4.60484 1.63055 3.68025 2.26319 2.96156C2.89582 2.24286 3.76865 1.7793 4.71836 1.65763C4.85932 1.63952 5.00233 1.66825 5.12535 1.7394C5.24838 1.81055 5.34461 1.92017 5.39922 2.05138L7.04805 5.89864C7.09092 5.99736 7.10886 6.10512 7.10028 6.21241C7.0917 6.3197 7.05686 6.42323 6.99883 6.51388L5.62891 8.59747C5.56792 8.69171 5.53212 8.80002 5.52494 8.91204C5.51776 9.02407 5.53943 9.13606 5.58789 9.23731V9.23731Z" stroke="white" stroke-width="2" stroke-linecap="round" stroke-linejoin="round"/>
</svg>
