<svg width="29" height="29" viewBox="0 0 29 29" fill="none" xmlns="http://www.w3.org/2000/svg">
<circle cx="14.5" cy="14.5" r="14.5" fill="white"/>
<path d="M14.8608 19.6446L18.9952 22.2696C19.5284 22.6059 20.1847 22.1055 20.0288 21.4903L18.8312 16.7817C18.7988 16.6512 18.8039 16.5142 18.846 16.3865C18.8881 16.2588 18.9654 16.1455 19.069 16.0598L22.7769 12.9673C23.2608 12.5653 23.0147 11.7532 22.3831 11.7122L17.5433 11.4005C17.4112 11.3928 17.2842 11.3468 17.1779 11.2681C17.0716 11.1895 16.9904 11.0815 16.9444 10.9575L15.1397 6.41296C15.092 6.28163 15.005 6.16818 14.8905 6.08801C14.776 6.00785 14.6397 5.96484 14.4999 5.96484C14.3602 5.96484 14.2238 6.00785 14.1093 6.08801C13.9949 6.16818 13.9078 6.28163 13.8601 6.41296L12.0554 10.9575C12.0094 11.0815 11.9283 11.1895 11.8219 11.2681C11.7156 11.3468 11.5886 11.3928 11.4565 11.4005L6.6167 11.7122C5.98506 11.7532 5.73897 12.5653 6.22295 12.9673L9.93076 16.0598C10.0344 16.1455 10.1117 16.2588 10.1538 16.3865C10.1959 16.5142 10.201 16.6512 10.1687 16.7817L9.06123 21.1458C8.87256 21.8841 9.66006 22.4829 10.2917 22.0809L14.139 19.6446C14.2469 19.576 14.3721 19.5396 14.4999 19.5396C14.6278 19.5396 14.753 19.576 14.8608 19.6446V19.6446Z" stroke="#00A465" stroke-width="2" stroke-linecap="round" stroke-linejoin="round"/>
</svg>
